<?xml version="1.0" encoding="UTF-8"?><svg id="a" xmlns="http://www.w3.org/2000/svg" viewBox="0 0 1024 1024"><defs><style>.b{fill:#9abc9f;}.c{fill:#2d211c;}.d{fill:#f5c99f;}.e{fill:#3a2b26;}.f{fill:#cf754f;}.g{fill:#79a085;}</style></defs><path class="g" d="M26,1024H0V0h1024v1024h-34c-1.37-1.45-2.39-3.1-3.06-4.97-10.11-49.32-21.29-99.48-49.55-141.92-16.7-25.07-41.42-40.93-68.74-52.3-48.03-20.18-96.79-39.55-146.26-58.1-29.85-11.6-58.02-25.96-84.5-43.07l-2.88-3.65c-1.65-1.96-2.53-4.23-2.27-6.79.68-23.42.53-46.62-1.48-69.27l1.75-3.94,1.99-4.84c34.64-33.34,57.73-75.01,65.18-122.69l2.83-4.47,3.12-.94c42.86,13.94,67.48-37.93,72.35-72.69,3.14-22.43-5.59-75.1-33.62-77.34-7.42,1.94-10.7.6-9.86-4.03l-1.39-3.04c4.75-29.81,8.13-61.01,8.98-91.27,1.17-41.68-1.46-75.8-27.49-110.39-63.74-84.7-166.57-92.55-264.52-88-50.84,2.36-106.45,16.55-132.73,63.63-1.83.77-2.68,0-3.93-1.18-7.08-6.68-1.93-31.51,2.3-39.56,2.77-7.07-.77-3.06-3.73.39-9.87,11.52-10.73,26.36-7.56,40.81-.06,2.62-.51,4.36-3.04,3.38-12.28-10.13-28.14-12.56-42.89-6.74,15.02,1.64,29.41,4.14,41.43,14.63,2.43,4.92-2.22,5.58-6.22,5.51-25.99,9.34-40.98,36.67-48.94,61.65l8.79-6.44c1.91-.78,3.56.31,4.05,2.3-4.83,27.15-4.42,56.13-.53,84.47l8.74,65.72c-.03,2.13-.47,4.17-1.32,6.12-1.42,1.54-3.63,2.2-6.63,1.98-39.65,17.8-36.66,73.31-23.14,108.45,9.59,24.94,35.91,53.97,64.89,41.75l2.89.82,2.74,4.2c6.73,45.1,27.84,87.99,61.96,117.45l-.7,2.35c1.06,8.27.74,16.75,0,25l1.86,5.81c.49,16.64.24,36.04-1.35,52.56-.09.96-.48,1.9-.9,2.85s-1,1.88-1.6,2.78c-1.28,1.69-2.64,3.39-4.48,4.49-30.17,18.21-61.64,34.65-94.32,48.38-46.83,18-92.61,38.24-137.35,60.73-69.01,36.13-86.11,115.75-100.82,186.21l-2.03,3.19Z"/><circle class="b" cx="500.92" cy="502.97" r="355.42"/><path class="e" d="M635,720c19.2,9.12,34.47,21.78,54.03,30.49,49.35,21.98,103.75,40.04,154.48,61.5,42.05,17.79,73.21,28.65,98.9,69.1,26.66,41.96,37.71,94.73,47.59,142.91H26c4.39-20.74,7.97-41.5,13.56-61.96,14.01-51.24,35.82-99.68,84.77-127.21,54.33-30.56,118.46-51.07,175.03-77.97,22.91-10.9,42.97-24.74,65.64-35.86,4.28,3.2.53,13.42-1.85,17.88-18.33,16.15,6.61,41.31,20.57,52.04,56.67,43.57,173.83,43.67,230.53.1,12.09-9.29,34.14-33.09,26.8-49.57-4.37-5.95-7-12.45-7.9-19.5l1.85-1.96Z"/><path class="e" d="M265,355c-4.77-44.06-14.85-90.02-12.04-134.54.22-3.47,3.89-21.29,3.03-22.46-.82-1.1-10.49,7.34-11.48,8-.74.5-1.64,2.07-2.49.51,6.74-25.29,25.15-59.13,51.73-67.27,1.46-.45,7.36.43,5.25-2.22-.35-.44-8.1-5.49-9.32-6.19-3.52-2-7.26-3.68-11.15-4.85l-26.51-3.97c16.9-9.07,37.04-8.47,51.5,4.96-3.66-13.68-3.34-30.77,5.52-42.45,1.12-1.48,12.05-13.75,10.77-7.24-3.06,15.55-11.86,23.92-4.75,43.17,2.1,5.68,2.92-1.38,5.14-4.77,23.74-36.24,75.51-54.47,117.27-56.73,98.83-5.37,204.57-1.68,272.51,79.58,34.07,40.75,37.4,79.44,34.02,130.95-1.52,23.18-4.03,61.78-8.98,83.52-1.62,7.13-5.25,7.79-9.03,13.47-5.94,8.94-9.09,18.11-11.5,28.5-.78,3.37-2.65,21.28-3.48,22.03-.75.67-5.42-2.5-5.82-3.67-3.4-58.33,8.68-122.19-13.41-177.59-1.53-3.84-9.92-20.85-12.77-22.27-2.09-1.04-15.9,4.21-19.96,5.07-99.12,20.86-171.75-67.05-263.58-61.58-7.91.47-49.76,8.18-53.01,14.05-.54.97.97,7.95,1.4,9.66,2.95,11.65,11.72,20.3,17.67,30.32-9.7-5-18.3-8.96-25.34-17.65-4.02-4.97-6.56-11.12-10.16-16.32-2.12,36.11-19.81,69.02-24.87,104.63-6.09,42.87.33,89.73-2.37,133.14-1.16.71-4.73,3.03-5.76,2.22-.94-.74-2.88-19.64-3.88-23.63-2.55-10.17-12.6-36.13-24.13-38.37Z"/><path class="d" d="M635,720c.87,14.02,6.74,15.33,9.54,24.96,1.78,6.12-3,16.48-6.12,21.96-45.4,79.78-241.45,78.18-281.23-4.6-8.51-17.7,2.24-15.57,6.59-30.04,1.43-4.75.79-6.94,1.23-11.27,2.13-21.17,1.38-42.89,2-64,.44-.3.78.03,1,1l2.53.42c12.93,16.25,28.62,31.99,46.09,44.31,53.45,37.69,99.9,30.28,150.65-6.61,22.21-16.15,41.93-35.48,61.48-54.72l4.25-1.41,2.04,31.46c.66,15.94-1.02,32.72-.04,48.54Z"/><path class="f" d="M303,508c-.91-5.61-6.99-36.36-2.9-38.89,7.31-4.52,6.54,19.75,7.03,23.26,11.1,78.32,37.39,115.82,100.55,161.45,88.99,64.29,182.44,29.37,247.28-48.35,34.43-41.26,37.24-75.09,45.17-125.83.91-5.8,5.6-21.33,6.91-7.18,1.12,12.05-2.03,23.83-4.05,35.54-9.98,57.87-28.94,91.08-70,132-70.99,70.75-142.15,133.33-236.01,49.51-6.16-5.5-26.1-25.28-28.99-31.51-.26-8.59-.6-17.26-1-26-1.69-2.68-10.51-9.57-13.51-12.99-30.43-34.61-43.14-65.82-50.49-111.01Z"/><path class="f" d="M368.37,658.69c-.2-.32-1.03-.64-1.35-1.03.33-8.53-.24-17.13,0-25.67,3.81,4.59-.02,20.44,1.35,26.69Z"/><path class="d" d="M265,355c.39.02.97.07,1.68.2,0,0,5.42,1,10.42,6.85,4.05,4.75,11.43,24.56,17.31,52.74l2.38-1.15c.65-29.56.53-59.92-.36-91.08-1.24-36.71,8.51-70.89,19.81-105.21,6.06-27.41,9.09-41.11,9.09-41.11l3.6,1.57c6.05,12.28,14.03,22.18,26.72,27.89-5.56-6.05-19.62-29.72-14.06-36.82,4.09-5.22,41.05-12.89,48.93-13.38,36.55-2.3,62.42,5.55,96.04,19.11l48.44,21.34c44.57,20.5,94.25,32.51,141.15,15.6,6.75-.84,14.2,14.84,16.23,20.68,9.82,28.22,15.73,54.66,15.01,84.98-.63,31.88-.76,63.75-.38,95.59l2.59,1.65c2.38-20.16,6.03-41.94,21.42-57.04,1.17-.71,2.92-1.62,5.17-2.23,0,0,4.64-.74,10.19-.08,27.18,3.23,36.13,52.79,34.57,74.39-2.71,37.44-31.93,97.48-77.98,78.52l-1.48-3.06c3.05-11.39,4.08-22.74,3.07-34.05-4.19,21.15-8.21,42.56-12.07,64.21-15.93,69.86-87.2,136.37-156.84,150.92-64.45,13.46-115.8-15.26-162.64-57.21-45.23-40.52-65.82-91.54-68.88-151.07-6.77-24.32-1.3,24.26.6,28.69l-1.76,1.58c-26.16,13.65-51.86-8.38-64.17-30.33-12.76-22.75-18.48-57.25-12.34-82.67,3.7-15.31,19.28-43.73,38.5-40Z"/><path class="e" d="M327.12,332.88c-1.59-1.21.01-8.71.59-10.69,3.82-13.09,17.3-23.78,30.81-25.18,15.64-1.62,74.2-1.76,87.44,2.53,8.34,2.71,20.4,10.28,21.06,19.97.33,4.87-.4,7.35-5.58,8.41-31.23-1.02-62.66-4.35-93.92-1.92-6.18.48-38.34,8.43-40.4,6.86Z"/><path class="e" d="M434.66,548.34c-.77-.63-2.31-.56-3.15-1.3-1.26-1.11-10.81-11.2-11.05-11.98-7.18-23.48,25.37-1.72,31.87,1.12,32.7,14.27,68.68,14.53,101.34,0,7.29-3.24,21.4-14.9,28.24-10.58,9.36,5.91-3.01,16.6-7.9,20.92-36.33,32.08-102.57,31.73-139.36,1.83Z"/><path class="e" d="M451.99,378.99c-.74.85-15.76-12.11-18.05-13.43-17.61-10.17-8.45-2.64-5.07,5.07,7.45,16.93,1.61,43.24-19.32,45.43-24.57,2.57-37.04-21.14-29.74-42.74.62-1.84,5.69-9.72,5.17-10.32s-12.6,6.61-13.9,7.59c-2.77,2.08-8.69,9.59-10.6,10.4-4.48,1.9,1.4-10.72,2.1-11.91,14.78-25.28,53.13-30.36,75.75-12.91,3.79,2.93,17.44,18.51,13.67,22.82Z"/><path class="e" d="M647.99,382c-7.22-6.73-13.68-13.5-22.97-17.52-12.51-5.41-4.85-.23-1.85,6.85,15.75,37.06-29.44,62.91-46.36,31.36-5.55-10.35-5.06-22.14-.31-32.67.8-1.78,6.15-8.26,5.48-9.01-.62-.71-14.1,7.13-15.9,8.59-2.13,1.72-9.95,12.11-10.11,7.91-.14-3.76,3.94-11.64,6.2-14.82,21.32-30,81.59-18.11,85.82,19.33Z"/><path class="e" d="M572.76,297.26c12.64-1.69,70.34-1.78,81.02,1.46s18.42,11.6,22.4,21.6c1.13,2.85,4.28,10.23.82,12.19-2.89,1.64-34.13-7.03-41.47-7.55-26.72-1.89-53.45,2.73-80.01,3.08-5.93.08-10.75-.2-10.58-7.51.29-12.52,16.94-21.83,27.81-23.28Z"/><path class="f" d="M474.14,348.14c7.37-4.73,16.3,16.84,17.4,21.82,4.43,19.95-3.56,49.33-9.06,69.04-1.54,5.53-8.12,18.57-6.35,23.36,3.03,8.19,49.73-3.67,49.78,12.14.05,14.39-31.07,15.1-41.29,10.38-28.29-13.06-13.6-33.9-7.91-54.66,5.8-21.17,11.65-48.06,2.16-68.59-1.38-2.98-8.97-10.77-4.73-13.49Z"/><path class="f" d="M754.75,393.76c-1.71,1.61-5.46.78-7.72,1.78-3.71,1.63-11.84,15.28-12.6,19.41-.94,5.11.91,1.91,4.53,4.6,14.55,10.8,11.51,40.51-1.61,51.31-3.69,3.04-12.24,7.74-8.59-.59,1.19-2.71,5-4.8,6.67-7.32,5.44-8.23,9.74-21.58,3.57-30.44-1.12-1.6-7.08-7.05-9-5.5-.98.79-2.68,24.92-10.08,19.58-2.95-2.13,2.89-20.33,4.05-24.09,3.18-10.31,13.46-40.52,28.06-36.03,3.27,1.01,5.44,4.74,2.71,7.31Z"/><path class="f" d="M274.99,427c-3.17-3.18-12.05,11-12.08,16.5-.08,15.64,9.01,17.67,13.15,26.93,2.48,5.54.21,5.57-4.41,3.41-16.01-7.48-20.37-40.1-7.19-51.87,1.84-1.64,7.56-4.02,7.52-4.46-.38-4.29-10.47-20.24-14.94-22.06-2.55-1.04-6.58.81-7.09-2.95-.69-5.19,4.59-5.93,8.53-5.54,9.32.93,16.25,18.05,19.25,25.8,2.18,5.64,10.56,29.59,7.34,33.83-6.67,8.78-9.17-18.66-10.09-19.58Z"/><path class="e" d="M431.51,547.04l3.6,2.51c2.06,1.22,4.12,2.44,6.18,3.66v-6.79l-9.77.62Z"/><path class="e" d="M640.37,723c13.16,7.25,26.35,16.82,39.29,23.17,61.1,29.99,131.73,49.65,194.16,78.65,65.77,30.55,85.71,76.46,103.94,143.96,4.84,17.92,9.25,36.83,11.27,55.22h-128.87c7.08-31.06,12.14-62.99,20.83-93.65,4.38-15.48,11.53-30.38,14.14-46.34l-5.01.48c-17.09,42.84-26.67,88.39-36.49,133.48-.44,2.02-.66,3.97-.46,6.03H165.84c-10.09-43.66-16.06-93.93-39.79-132.67-2-3.27-6.53-12.72-10.05-5.98,25.96,41.74,32.13,91.51,42.84,138.65H27.97c6.32-44.87,17.93-89.98,39.44-130.02,20.45-38.06,41.25-51.38,79.09-69.84,60.56-29.54,126.7-51.17,185.18-84.14,1.57,2.9,2.06-1.82,4.79-1.17l.21-1.83c.74-.43,1.48-.7,2-1h2.99s0-2,0-2c1.61-.92,2.64-1.29,4-2,2.14-.28,5.62-.11,5-3,1.31-.59,1.78-1.27,4-2,1.54-.5,8.13-2.86,8.99-2,.36,4.3-1.21,9.53-3.22,13.31-.59,1.11-1.98,1.38-2.4,2.11-4,6.74-7.5,8.08-4.87,16.6s10.08,15.38,15.5,20.98c2.28,2.36,4.69,4.59,6.99,7-1.53,1.27.61,2.12,2,2,.31.35.67.66,1,1,.79.83,1.3,2.32,2.5,2.98l.49-.98c5.85,4.46,12.55,9.47,18.98,13-2.93,1.78.06,1.88.99,2.46,25.84,16.3,78.85,25.17,108.44,23.57,9.39-.51,25.18-2.21,34.68-4.29,24.35-5.32,49.11-15.49,69.6-30.33l4.08-4.42c1.15-.89,2.61-1.68,3-2l2-2c.82-.72,1.37-2.61,3-3l4-4c.15-2.07,2.33-3.09,3-4,2.15,2.05,2.24-.04,3.05-1.46,3.8-6.64,10.86-18.73,10.63-26.25-.09-2.87-7.08-12.14-8.62-16.85-.66-2.03-1.09-4.32-1.6-6.41-.57-2.3,2.33-.54,3.54-1.03ZM673.34,750v14.5c0,13.92-19.69,39.82-29.96,49.01-72.41,64.82-236.42,61.59-299.69-15.04-11.32-13.71-17.24-30.74-18.02-48.47-9.61,2.06-2.91,22.47-.47,28.98,25.8,68.67,131.39,90.48,195.83,87.06,55.79-2.96,144.11-33.58,156.86-95.99,1.17-5.71,4.66-21.34-4.55-20.05Z"/><path class="c" d="M853.17,1024c-.2-2.06.02-4.01.46-6.03,9.82-45.1,19.4-90.64,36.49-133.48l5.01-.48c-2.61,15.96-9.75,30.86-14.14,46.34-8.68,30.66-13.75,62.59-20.83,93.65h-6.99Z"/><path class="c" d="M165.84,1024h-6.99c-10.71-47.14-16.88-96.91-42.84-138.65,3.51-6.74,8.04,2.7,10.05,5.98,23.72,38.75,29.7,89.02,39.79,132.67Z"/><path class="c" d="M618.4,790l-4.08,4.42c-20.49,14.84-45.25,25.01-69.6,30.33-9.5,2.08-25.29,3.78-34.68,4.29-29.58,1.6-82.6-7.27-108.44-23.57-.93-.58-3.92-.69-.99-2.46,62.49,34.3,160.81,31.14,217.79-13Z"/><path class="c" d="M368.64,778c-5.41-5.6-12.84-12.36-15.5-20.98s.87-9.86,4.87-16.6c.43-.72,1.82-1,2.4-2.11,2.01-3.78,3.58-9.02,3.22-13.31-.86-.86-7.45,1.5-8.99,2,2.63-2.68,9.22-3.3,10.01-6.99,3.8-2.25-.68,14.05-1.52,15.99-2.13,4.99-8.51,10.58-8.59,15.48-.14,8.05,9.38,20.17,14.09,26.52Z"/><path class="c" d="M640.37,723c-1.21.49-4.11-1.27-3.54,1.03.52,2.09.94,4.38,1.6,6.41,1.54,4.71,8.53,13.98,8.62,16.85.23,7.52-6.83,19.61-10.63,26.25-.81,1.42-.9,3.51-3.05,1.46,4.52-6.19,11.56-18,11.94-25.65.41-8.27-12.54-19.38-9.94-29.35,2.32-.36,3.42,2.13,4.99,3Z"/><path class="c" d="M350.66,729c.63,2.89-2.85,2.72-5,3,1.34-.69,2.32-1.8,5-3Z"/><path class="c" d="M341.67,734v1.99s-3,0-3,0c.7-.41,1.61-1.21,3-2Z"/><path class="c" d="M336.67,737l-.21,1.83c-2.73-.65-3.22,4.07-4.79,1.17,1.63-.92,3.3-2.03,5-3Z"/><path class="c" d="M381.63,790l-.49.98c-1.21-.66-1.71-2.16-2.5-2.98,1.35.27,2.05,1.28,3,2Z"/><path class="c" d="M377.63,787c-1.39.12-3.53-.73-2-2,.65.68,1.37,1.31,2,2Z"/><path class="c" d="M626.39,783l4-4-4,4Z"/><path class="c" d="M621.39,788c.5-.41,1.21-1.31,2-2l-2,2Z"/><path class="c" d="M673.34,750c9.2-1.29,5.71,14.34,4.55,20.05-12.75,62.41-101.07,93.03-156.86,95.99-64.44,3.42-170.03-18.39-195.83-87.06-2.44-6.51-9.14-26.92.47-28.98.78,17.73,6.7,34.76,18.02,48.47,63.27,76.64,227.28,79.86,299.69,15.04,10.27-9.19,29.96-35.09,29.96-49.01v-14.5Z"/></svg>